<?xml version="1.0" encoding="UTF-8"?>
<svg xmlns="http://www.w3.org/2000/svg" xmlns:xlink="http://www.w3.org/1999/xlink" width="1125pt" height="1125pt" viewBox="0 0 1125 1125" version="1.1">
<defs>
<clipPath id="clip1">
  <path d="M 0 0 L 1125 0 L 1125 1125 L 0 1125 Z M 0 0 "/>
</clipPath>
</defs>
<g id="surface0">
<g clip-path="url(#clip1)" clip-rule="nonzero">
<path style=" stroke:none;fill-rule:evenodd;fill:rgb(100%,100%,100%);fill-opacity:1;" d="M 0 0 L 1125 0 L 1125 1125 L 0 1125 Z M 0 0 "/>
<path style=" stroke:none;fill-rule:evenodd;fill:rgb(17.647059%,52.156863%,82.352941%);fill-opacity:1;" d="M 667.078125 301.152344 L 766.378906 301.152344 L 766.378906 400.441406 L 667.078125 400.441406 Z M 667.078125 301.152344 "/>
<path style=" stroke:none;fill-rule:evenodd;fill:rgb(17.647059%,52.156863%,82.352941%);fill-opacity:1;" d="M 554.34375 413.890625 L 653.644531 413.890625 L 653.644531 513.1875 L 554.34375 513.1875 Z M 554.34375 413.890625 "/>
<path style=" stroke:none;fill-rule:evenodd;fill:rgb(17.647059%,52.156863%,82.352941%);fill-opacity:1;" d="M 440.019531 528.15625 L 539.320313 528.15625 L 539.320313 627.457031 L 440.019531 627.457031 Z M 440.019531 528.15625 "/>
<path style=" stroke:none;fill-rule:evenodd;fill:rgb(17.647059%,52.156863%,82.352941%);fill-opacity:1;" d="M 323.375 643.398438 L 422.675781 643.398438 L 422.675781 742.695313 L 323.375 742.695313 Z M 323.375 643.398438 "/>
<path style=" stroke:none;fill-rule:evenodd;fill:rgb(17.647059%,52.156863%,82.352941%);fill-opacity:1;" d="M 653.210938 400.816406 L 553.167969 400.824219 L 553.175781 300.773438 L 653.203125 300.773438 Z M 653.210938 400.816406 "/>
<path style=" stroke:none;fill-rule:evenodd;fill:rgb(17.647059%,52.156863%,82.352941%);fill-opacity:1;" d="M 440.019531 301.128906 L 539.320313 301.128906 L 539.320313 400.421875 L 440.019531 400.421875 Z M 440.019531 301.128906 "/>
<path style=" stroke:none;fill-rule:evenodd;fill:rgb(17.647059%,52.156863%,82.352941%);fill-opacity:1;" d="M 667.078125 414.644531 L 766.378906 414.644531 L 766.378906 513.941406 L 667.078125 513.941406 Z M 667.078125 414.644531 "/>
<path style=" stroke:none;fill-rule:evenodd;fill:rgb(17.647059%,52.156863%,82.352941%);fill-opacity:1;" d="M 667.054688 528.15625 L 766.347656 528.15625 L 766.347656 627.457031 L 667.054688 627.457031 Z M 667.054688 528.15625 "/>
<path style=" stroke:none;fill-rule:nonzero;fill:rgb(0%,0%,0%);fill-opacity:1;" d="M 758.40625 689.179688 C 754.71875 689.179688 752.160156 692.1875 752.160156 696.5625 C 752.160156 700.925781 754.71875 703.933594 758.40625 703.933594 C 762.066406 703.933594 764.59375 700.925781 764.59375 696.5625 C 764.59375 692.1875 762.066406 689.179688 758.40625 689.179688 Z M 686.398438 688.679688 C 682.867188 688.679688 680.445313 691.898438 680.445313 696.5625 C 680.445313 701.21875 682.867188 704.4375 686.398438 704.4375 C 689.925781 704.4375 692.347656 701.21875 692.347656 696.5625 C 692.347656 691.898438 689.925781 688.679688 686.398438 688.679688 Z M 509.011719 688.679688 C 505.476563 688.679688 503.054688 691.898438 503.054688 696.5625 C 503.054688 701.21875 505.476563 704.4375 509.011719 704.4375 C 512.535156 704.4375 514.957031 701.21875 514.957031 696.5625 C 514.957031 691.898438 512.535156 688.679688 509.011719 688.679688 Z M 707.226563 682.335938 L 716.738281 682.335938 L 716.738281 698.902344 C 716.738281 701.878906 718.65625 703.933594 721.351563 703.933594 C 724.164063 703.933594 726.039063 701.691406 726.039063 698.480469 L 726.039063 682.335938 L 735.546875 682.335938 L 735.546875 710.78125 L 726.039063 710.78125 L 726.039063 706.042969 C 724.320313 709.515625 720.953125 711.621094 716.871094 711.621094 C 710.917969 711.621094 707.226563 707.089844 707.226563 700.589844 L 707.226563 682.335938 Z M 761.566406 681.492188 C 768.707031 681.492188 774.261719 687.628906 774.261719 696.5625 C 774.261719 705.488281 768.707031 711.621094 761.566406 711.621094 C 757.273438 711.621094 754.058594 709.410156 752.160156 705.726563 L 752.160156 720.472656 L 742.65625 720.472656 L 742.65625 682.335938 L 752.160156 682.335938 L 752.160156 687.390625 C 754.058594 683.707031 757.296875 681.492188 761.566406 681.492188 Z M 686.398438 681.492188 C 695.640625 681.492188 702.015625 687.628906 702.015625 696.5625 C 702.015625 705.488281 695.640625 711.621094 686.398438 711.621094 C 677.152344 711.621094 670.777344 705.488281 670.777344 696.5625 C 670.777344 687.628906 677.152344 681.492188 686.398438 681.492188 Z M 664.171875 681.492188 C 665.0625 681.492188 666.195313 681.703125 667.117188 682.042969 L 667.117188 689.652344 C 666.171875 689.472656 664.988281 689.421875 664.140625 689.421875 C 659.242188 689.421875 656.265625 691.8125 656.265625 695.316406 L 656.265625 710.78125 L 646.753906 710.78125 L 646.753906 682.335938 L 656.265625 682.335938 L 656.265625 687.15625 C 657.585938 683.675781 661.214844 681.492188 664.171875 681.492188 Z M 547.671875 681.492188 C 548.566406 681.492188 549.699219 681.703125 550.621094 682.042969 L 550.621094 689.652344 C 549.675781 689.472656 548.492188 689.421875 547.644531 689.421875 C 542.746094 689.421875 539.769531 691.8125 539.769531 695.316406 L 539.769531 710.78125 L 530.265625 710.78125 L 530.265625 682.335938 L 539.769531 682.335938 L 539.769531 687.15625 C 541.085938 683.675781 544.726563 681.492188 547.671875 681.492188 Z M 509.011719 681.492188 C 518.25 681.492188 524.625 687.628906 524.625 696.5625 C 524.625 705.488281 518.25 711.621094 509.011719 711.621094 C 499.761719 711.621094 493.386719 705.488281 493.386719 696.5625 C 493.386719 687.628906 499.761719 681.492188 509.011719 681.492188 Z M 440.316406 672.644531 L 450.5625 672.644531 L 455.992188 698.113281 L 461.207031 672.644531 L 470.738281 672.644531 L 475.949219 698.113281 L 481.378906 672.644531 L 491.59375 672.644531 L 481.222656 710.78125 L 471.660156 710.78125 L 465.96875 684.578125 L 460.28125 710.78125 L 450.71875 710.78125 L 440.316406 672.644531 Z M 621.628906 671.796875 C 631.085938 671.796875 638.460938 677.226563 640.253906 685.3125 L 630.511719 685.3125 C 629.242188 682.125 625.929688 679.941406 621.945313 679.941406 C 616.050781 679.941406 612.226563 684.734375 612.226563 691.761719 C 612.226563 698.347656 615.628906 703.484375 622.3125 703.484375 C 627.1875 703.484375 631.214844 700.746094 631.214844 696.667969 L 623.128906 696.667969 L 623.128906 689.945313 L 640.648438 689.945313 L 640.648438 694.425781 C 640.648438 704.648438 632.828125 711.621094 621.839844 711.621094 C 609.992188 711.621094 602.191406 703.515625 602.191406 691.738281 C 602.191406 679.890625 610.09375 671.796875 621.628906 671.796875 Z M 555.945313 670.957031 L 565.449219 670.957031 L 565.449219 695.347656 L 574.035156 682.335938 L 584.679688 682.335938 L 574.851563 695.085938 L 585.285156 710.78125 L 574.246094 710.78125 L 565.449219 696.667969 L 565.449219 710.78125 L 555.945313 710.78125 L 555.945313 670.957031 Z M 555.945313 670.957031 "/>
<path style=" stroke:none;fill-rule:nonzero;fill:rgb(100%,100%,100%);fill-opacity:1;" d="M 394.804688 675.425781 L 402.230469 675.425781 L 402.230469 698.796875 C 402.230469 701.855469 401.96875 704.203125 401.425781 705.84375 C 400.707031 707.996094 399.394531 709.722656 397.496094 711.019531 C 395.601563 712.324219 393.101563 712.976563 389.996094 712.976563 C 386.351563 712.976563 383.546875 711.957031 381.582031 709.917969 C 379.625 707.878906 378.636719 704.886719 378.613281 700.941406 L 385.640625 700.128906 C 385.722656 702.246094 386.039063 703.738281 386.570313 704.613281 C 387.378906 705.941406 388.601563 706.601563 390.246094 706.601563 C 391.910156 706.601563 393.085938 706.128906 393.769531 705.175781 C 394.460938 704.234375 394.804688 702.261719 394.804688 699.273438 L 394.804688 675.425781 Z M 344.34375 675.425781 L 351.800781 675.425781 L 351.800781 691.820313 L 366.851563 675.425781 L 376.871094 675.425781 L 362.976563 689.800781 L 377.628906 712.347656 L 367.984375 712.347656 L 357.835938 695.015625 L 351.800781 701.1875 L 351.800781 712.347656 L 344.34375 712.347656 L 344.34375 675.425781 Z M 344.34375 675.425781 "/>
</g>
</g>
</svg>
