<svg width="638" height="183" viewBox="0 0 638 183" fill="none" xmlns="http://www.w3.org/2000/svg">
<path fill-rule="evenodd" clip-rule="evenodd" d="M15 26H147.401V158.396H15V26Z" fill="#2D85D2"/>
<path d="M595.042 87.0417C590.125 87.0417 586.714 91.0521 586.714 96.8854C586.714 102.703 590.125 106.714 595.042 106.714C599.922 106.714 603.292 102.703 603.292 96.8854C603.292 91.0521 599.922 87.0417 595.042 87.0417ZM499.031 86.375C494.323 86.375 491.094 90.6667 491.094 96.8854C491.094 103.094 494.323 107.385 499.031 107.385C503.734 107.385 506.964 103.094 506.964 96.8854C506.964 90.6667 503.734 86.375 499.031 86.375ZM262.516 86.375C257.802 86.375 254.573 90.6667 254.573 96.8854C254.573 103.094 257.802 107.385 262.516 107.385C267.214 107.385 270.443 103.094 270.443 96.8854C270.443 90.6667 267.214 86.375 262.516 86.375ZM526.802 77.9167H539.484V100.005C539.484 103.974 542.042 106.714 545.635 106.714C549.385 106.714 551.885 103.724 551.885 99.4427V77.9167H564.563V115.844H551.885V109.526C549.594 114.156 545.104 116.964 539.661 116.964C531.724 116.964 526.802 110.922 526.802 102.255V77.9167ZM599.255 76.7917C608.776 76.7917 616.182 84.974 616.182 96.8854C616.182 108.786 608.776 116.964 599.255 116.964C593.531 116.964 589.245 114.016 586.714 109.104V128.766H574.042V77.9167H586.714V84.6563C589.245 79.7448 593.563 76.7917 599.255 76.7917ZM499.031 76.7917C511.354 76.7917 519.854 84.974 519.854 96.8854C519.854 108.786 511.354 116.964 499.031 116.964C486.703 116.964 478.203 108.786 478.203 96.8854C478.203 84.974 486.703 76.7917 499.031 76.7917ZM469.396 76.7917C470.583 76.7917 472.094 77.0729 473.323 77.5261V87.6719C472.063 87.4323 470.484 87.3646 469.354 87.3646C462.823 87.3646 458.854 90.5521 458.854 95.224V115.844H446.172V77.9167H458.854V84.3438C460.615 79.7031 465.453 76.7917 469.396 76.7917ZM314.063 76.7917C315.255 76.7917 316.766 77.0729 317.995 77.5261V87.6719C316.734 87.4323 315.156 87.3646 314.026 87.3646C307.495 87.3646 303.526 90.5521 303.526 95.224V115.844H290.854V77.9167H303.526V84.3438C305.281 79.7031 310.135 76.7917 314.063 76.7917ZM262.516 76.7917C274.833 76.7917 283.333 84.974 283.333 96.8854C283.333 108.786 274.833 116.964 262.516 116.964C250.182 116.964 241.682 108.786 241.682 96.8854C241.682 84.974 250.182 76.7917 262.516 76.7917ZM170.922 64.9948H184.583L191.823 98.9531L198.776 64.9948H211.484L218.432 98.9531L225.672 64.9948H239.292L225.464 115.844H212.714L205.125 80.9063L197.542 115.844H184.792L170.922 64.9948ZM412.672 63.8646C425.281 63.8646 435.115 71.1042 437.505 81.8854H424.516C422.823 77.6354 418.406 74.724 413.094 74.724C405.234 74.724 400.135 81.1146 400.135 90.4844C400.135 99.2656 404.672 106.115 413.583 106.115C420.083 106.115 425.453 102.464 425.453 97.0261H414.672V88.0625H438.031V94.0365C438.031 107.667 427.604 116.964 412.953 116.964C397.156 116.964 386.755 106.156 386.755 90.4531C386.755 74.6563 397.292 63.8646 412.672 63.8646ZM325.094 62.7448H337.766V95.2656L349.214 77.9167H363.406L350.302 94.9167L364.214 115.844H349.495L337.766 97.0261V115.844H325.094V62.7448Z" fill="black"/>
<path d="M110.24 68.7031H120.141V99.8646C120.141 103.943 119.792 107.073 119.068 109.26C118.11 112.13 116.36 114.432 113.828 116.161C111.302 117.901 107.969 118.771 103.828 118.771C98.9689 118.771 95.2293 117.411 92.6095 114.693C90.0002 111.974 88.6825 107.984 88.6512 102.724L98.021 101.641C98.1304 104.464 98.5522 106.453 99.2606 107.62C100.339 109.391 101.969 110.271 104.162 110.271C106.38 110.271 107.948 109.641 108.86 108.37C109.781 107.115 110.24 104.484 110.24 100.5V68.7031ZM42.9585 68.7031H52.9012V90.5625L72.9689 68.7031H86.3283L67.8022 87.8698L87.3387 117.932H74.4793L60.9481 94.8229L52.9012 103.052V117.932H42.9585V68.7031Z" fill="white"/>
</svg>
