<svg width="679" height="640" viewBox="0 0 679 640" fill="none" xmlns="http://www.w3.org/2000/svg">
<path fill-rule="evenodd" clip-rule="evenodd" d="M497.271 25.5052H629.672V157.891H497.271V25.5052Z" fill="#2D85D2"/>
<path fill-rule="evenodd" clip-rule="evenodd" d="M346.958 175.823H479.359V308.219H346.958V175.823Z" fill="#2D85D2"/>
<path fill-rule="evenodd" clip-rule="evenodd" d="M194.526 328.177H326.927V460.578H194.526V328.177Z" fill="#2D85D2"/>
<path fill-rule="evenodd" clip-rule="evenodd" d="M39 481.833H171.401V614.229H39V481.833Z" fill="#2D85D2"/>
<path fill-rule="evenodd" clip-rule="evenodd" d="M478.781 158.391L345.391 158.401L345.401 25H478.771L478.781 158.391Z" fill="#2D85D2"/>
<path fill-rule="evenodd" clip-rule="evenodd" d="M194.526 25.4739H326.927V157.865H194.526V25.4739Z" fill="#2D85D2"/>
<path fill-rule="evenodd" clip-rule="evenodd" d="M497.271 176.828H629.672V309.224H497.271V176.828Z" fill="#2D85D2"/>
<path fill-rule="evenodd" clip-rule="evenodd" d="M497.24 328.177H629.63V460.578H497.24V328.177Z" fill="#2D85D2"/>
<path d="M619.042 542.875C614.125 542.875 610.714 546.885 610.714 552.719C610.714 558.536 614.125 562.547 619.042 562.547C623.922 562.547 627.292 558.536 627.292 552.719C627.292 546.885 623.922 542.875 619.042 542.875ZM523.031 542.208C518.323 542.208 515.094 546.5 515.094 552.719C515.094 558.927 518.323 563.219 523.031 563.219C527.734 563.219 530.964 558.927 530.964 552.719C530.964 546.5 527.734 542.208 523.031 542.208ZM286.516 542.208C281.802 542.208 278.573 546.5 278.573 552.719C278.573 558.927 281.802 563.219 286.516 563.219C291.214 563.219 294.443 558.927 294.443 552.719C294.443 546.5 291.214 542.208 286.516 542.208ZM550.802 533.75H563.484V555.839C563.484 559.807 566.042 562.547 569.635 562.547C573.385 562.547 575.885 559.557 575.885 555.276V533.75H588.563V571.677H575.885V565.359C573.594 569.99 569.104 572.797 563.661 572.797C555.724 572.797 550.802 566.755 550.802 558.089V533.75ZM623.255 532.625C632.776 532.625 640.182 540.807 640.182 552.719C640.182 564.62 632.776 572.797 623.255 572.797C617.531 572.797 613.245 569.849 610.714 564.938V584.599H598.042V533.75H610.714V540.49C613.245 535.578 617.563 532.625 623.255 532.625ZM523.031 532.625C535.354 532.625 543.854 540.807 543.854 552.719C543.854 564.62 535.354 572.797 523.031 572.797C510.703 572.797 502.203 564.62 502.203 552.719C502.203 540.807 510.703 532.625 523.031 532.625ZM493.396 532.625C494.583 532.625 496.094 532.906 497.323 533.359V543.505C496.063 543.266 494.484 543.198 493.354 543.198C486.823 543.198 482.854 546.385 482.854 551.057V571.677H470.172V533.75H482.854V540.177C484.615 535.536 489.453 532.625 493.396 532.625ZM338.063 532.625C339.255 532.625 340.766 532.906 341.995 533.359V543.505C340.734 543.266 339.156 543.198 338.026 543.198C331.495 543.198 327.526 546.385 327.526 551.057V571.677H314.854V533.75H327.526V540.177C329.281 535.536 334.135 532.625 338.063 532.625ZM286.516 532.625C298.833 532.625 307.333 540.807 307.333 552.719C307.333 564.62 298.833 572.797 286.516 572.797C274.182 572.797 265.682 564.62 265.682 552.719C265.682 540.807 274.182 532.625 286.516 532.625ZM194.922 520.828H208.583L215.823 554.786L222.776 520.828H235.484L242.432 554.786L249.672 520.828H263.292L249.464 571.677H236.714L229.125 536.74L221.542 571.677H208.792L194.922 520.828ZM436.672 519.698C449.281 519.698 459.115 526.938 461.505 537.719H448.516C446.823 533.469 442.406 530.557 437.094 530.557C429.234 530.557 424.135 536.948 424.135 546.318C424.135 555.099 428.672 561.948 437.583 561.948C444.083 561.948 449.453 558.297 449.453 552.859H438.672V543.896H462.031V549.87C462.031 563.5 451.604 572.797 436.953 572.797C421.156 572.797 410.755 561.99 410.755 546.286C410.755 530.49 421.292 519.698 436.672 519.698ZM349.094 518.578H361.766V551.099L373.214 533.75H387.406L374.302 550.75L388.214 571.677H373.495L361.766 552.859V571.677H349.094V518.578Z" fill="black"/>
<path d="M134.24 524.536H144.141V555.698C144.141 559.776 143.792 562.906 143.068 565.094C142.109 567.964 140.359 570.266 137.828 571.995C135.302 573.734 131.969 574.604 127.828 574.604C122.969 574.604 119.229 573.245 116.609 570.526C114 567.807 112.682 563.818 112.651 558.557L122.021 557.474C122.13 560.297 122.552 562.286 123.26 563.453C124.339 565.224 125.969 566.104 128.162 566.104C130.38 566.104 131.948 565.474 132.859 564.203C133.781 562.948 134.24 560.318 134.24 556.333V524.536ZM66.9584 524.536H76.9011V546.396L96.9688 524.536H110.328L91.8021 543.703L111.339 573.766H98.4792L84.948 550.656L76.9011 558.885V573.766H66.9584V524.536Z" fill="white"/>
</svg>
